<svg xmlns="http://www.w3.org/2000/svg" viewBox="0 0 785.13 1031.02"><defs><style>.cls-1{fill:#2a2c41;}</style></defs><g id="Capa_2" data-name="Capa 2"><g id="Capa_1-2" data-name="Capa 1"><path class="cls-1" d="M781.26,341.16c-11.84-87.73-49.6-163.24-112-225.53C601.32,47.81,518.93,9.32,422.82,1.36,344.66-5.11,271.3,11.58,203.22,49.65,127.78,91.84,71.76,152.75,35.81,231.57,2.92,303.69-7.3,379.14,5.09,457.39c10.38,65.52,37.06,124.12,76.72,177.16q139.82,187,279.35,374.11c6.39,8.53,15.58,15,23.47,22.36h16.11c6.88-6.06,15.08-11.13,20.46-18.32Q563,823.43,704.08,633.69C768.94,546.56,795.85,449.21,781.26,341.16ZM393.36,666.48c-149.3.75-272.61-122.3-272.52-271.92C120.94,245.23,243.12,123,392.51,122.8c149.2-.19,271.54,121.89,272,271.42C665,543.29,543,665.74,393.36,666.48Z"/><path class="cls-1" d="M392.43,183.22C276.11,183.44,181,278.75,181.26,394.9c.22,116.31,95.52,211.39,211.68,211.17S604.33,510.54,604.1,394.39C603.88,278.08,508.58,183,392.43,183.22Zm90.9,218c-17.68,16.69-39.47,23.47-63.47,23.63-18.72.13-37.45,0-57.41,0,0,31,.33,60.47-.11,90-.34,23.21-22.95,37.58-43,27.7C306.83,536.37,302,525.69,302,512.07q.17-89.11.05-178.21c0-19.13-.13-38.26,0-57.38.17-20.38,12.31-32.9,32.55-32.78,34.2.2,68.69-1.58,102.53,2.18,37.74,4.19,62.4,28.11,72.54,64.79C519.43,345.77,509.69,376.3,483.33,401.19Z"/><path class="cls-1" d="M428.83,305.09c-21.81-1.62-43.83-.42-66-.42v59.67c21.16,0,41.22.43,61.26-.13A29.75,29.75,0,0,0,453,336.12C453.93,321.34,443.79,306.2,428.83,305.09Z"/></g></g></svg>