<?xml version="1.0" encoding="utf-8"?>
<!-- Generator: Adobe Illustrator 26.0.0, SVG Export Plug-In . SVG Version: 6.00 Build 0)  -->
<svg version="1.1" id="Capa_1" xmlns="http://www.w3.org/2000/svg" xmlns:xlink="http://www.w3.org/1999/xlink" x="0px" y="0px"
	 viewBox="0 0 1920 1080" style="enable-background:new 0 0 1920 1080;" xml:space="preserve">
<style type="text/css">
	.st0{fill:#FDBF50;}
	.st1{fill:#F4F4F4;}
	.st2{fill:#2A2C41;}
	.st3{fill:none;stroke:#F4F4F4;stroke-miterlimit:10;}
</style>
<g>
	<path class="st2" d="M283.3,566.8c-9,16.3-22.9,29.4-41.6,39.4c-18.7,10-41.9,15-69.7,15h-51.3v121.9H37.9V403.5h134
		c27.1,0,50,4.7,68.7,14c18.7,9.4,32.7,22.3,42.1,38.7c9.4,16.5,14,35.3,14,56.6C296.8,532.5,292.3,550.5,283.3,566.8z M201,544.3
		c7.7-7.4,11.6-17.9,11.6-31.5c0-13.5-3.9-24-11.6-31.5c-7.7-7.4-19.5-11.1-35.3-11.1h-45v85.2h45
		C181.5,555.4,193.3,551.7,201,544.3z"/>
	<path class="st2" d="M425,747.1c-20.3,0-37.7-3.5-52.3-10.4c-14.5-6.9-25.6-16.4-33.4-28.3c-7.7-11.9-11.6-25.3-11.6-40.2
		c0-15.5,3.8-29,11.4-40.6c7.6-11.6,19.6-20.7,36.1-27.3c16.5-6.6,37.9-9.9,64.4-9.9h69.2v44h-61c-17.7,0-29.9,2.9-36.5,8.7
		c-6.6,5.8-9.9,13.1-9.9,21.8c0,9.7,3.8,17.3,11.4,23c7.6,5.6,18,8.5,31.2,8.5c12.6,0,23.9-3,33.9-9c10-6,17.3-14.8,21.8-26.4
		l11.6,34.8c-5.5,16.8-15.5,29.5-30,38.2C466.7,742.7,447.9,747.1,425,747.1z M504.4,743.2v-50.8l-4.8-11.1v-91
		c0-16.1-4.9-28.7-14.8-37.7c-9.8-9-24.9-13.5-45.2-13.5c-13.9,0-27.5,2.2-40.9,6.5c-13.4,4.4-24.8,10.2-34.1,17.7l-27.1-52.7
		c14.2-10,31.3-17.7,51.3-23.2c20-5.5,40.3-8.2,61-8.2c39.7,0,70.5,9.4,92.4,28.1c21.9,18.7,32.9,47.9,32.9,87.6v148.6H504.4z"/>
	<path class="st2" d="M757.5,483.1c14.5-8.5,30.6-12.8,48.4-12.8v87.6h-22.7c-20.6,0-36.1,4.4-46.5,13.3
		c-10.3,8.9-15.5,24.4-15.5,46.7v125.3h-82.7v-270h82.7v45C730.9,503.4,743,491.7,757.5,483.1z"/>
	<path class="st2" d="M1010.6,743.2L928.3,630v113.2h-82.7V385.1h82.7V583l81.8-109.8h102.1L999.9,608.7l113.2,134.5H1010.6z"/>
	<path class="st2" d="M1227.4,473.2v270h-82.7v-270H1227.4z"/>
	<path class="st2" d="M1527.6,501c18.9,20.5,28.3,48.6,28.3,84.4v157.8h-82.3V596.6c0-18.1-4.7-32.1-14-42.1
		c-9.4-10-21.9-15-37.7-15c-15.8,0-28.4,5-37.7,15c-9.4,10-14,24-14,42.1v146.6h-82.7v-270h82.7V509c8.4-11.9,19.7-21.4,33.9-28.3
		c14.2-6.9,30.2-10.4,47.9-10.4C1483.5,470.3,1508.7,480.5,1527.6,501z"/>
	<path class="st2" d="M1766.2,480.9c14.4,7.7,25.4,17.9,33.1,30.5v-38.2h82.7v269.5c0,24.8-4.9,47.3-14.8,67.5
		c-9.8,20.2-24.8,36.2-45,48.1c-20.2,11.9-45.2,17.9-75.2,17.9c-40,0-72.4-9.4-97.3-28.3c-24.8-18.9-39-44.4-42.6-76.7h81.8
		c2.6,10.3,8.7,18.5,18.4,24.4c9.7,6,21.6,9,35.8,9c17.1,0,30.7-4.9,40.9-14.8c10.2-9.8,15.2-25.6,15.2-47.2v-38.2
		c-8.1,12.6-19.2,22.8-33.4,30.7c-14.2,7.9-30.8,11.9-49.8,11.9c-22.3,0-42.4-5.7-60.5-17.2c-18.1-11.4-32.3-27.7-42.8-48.9
		c-10.5-21.1-15.7-45.6-15.7-73.3c0-27.7,5.2-52.1,15.7-73.1c10.5-21,24.8-37.1,42.8-48.4c18.1-11.3,38.2-16.9,60.5-16.9
		C1735.1,469.3,1751.8,473.2,1766.2,480.9z M1782.2,559.3c-11.5-11.9-25.4-17.9-41.9-17.9c-16.5,0-30.4,5.9-41.9,17.7
		c-11.5,11.8-17.2,28-17.2,48.6c0,20.6,5.7,37,17.2,49.1c11.4,12.1,25.4,18.1,41.9,18.1c16.5,0,30.4-6,41.9-17.9
		c11.4-11.9,17.2-28.2,17.2-48.9C1799.3,587.6,1793.6,571.3,1782.2,559.3z"/>
	<g>
		<path class="st2" d="M1291.5,285.9c-3.2-24-13.6-44.7-30.7-61.8c-18.6-18.6-41.2-29.1-67.5-31.3c-21.4-1.8-41.5,2.8-60.1,13.2
			c-20.7,11.6-36,28.2-45.9,49.8c-9,19.8-11.8,40.4-8.4,61.9c2.8,17.9,10.1,34,21,48.5c25.5,34.1,51,38.5,76.5,72.6
			c1.3,1.8,3.1,3.2,4.8,4.7c1.1,0.9,2.5,1.4,3.9,1.4l0,0c1.3,0,2.6-0.5,3.7-1.3c1.5-1.2,3-2.3,4-3.7c25.9-34.6,51.7-39.3,77.5-73.9
			C1288.1,342.1,1295.5,315.5,1291.5,285.9z M1185.2,380.6c-45,0.2-82.1-36.8-82.1-81.9c0-45,36.8-81.8,81.8-81.9
			c44.9-0.1,81.8,36.7,81.9,81.8C1267.1,343.5,1230.3,380.4,1185.2,380.6z"/>
		<g>
			<path class="st2" d="M1184.9,235c-35,0.1-63.7,28.8-63.6,63.8c0.1,35,28.8,63.7,63.8,63.6c35-0.1,63.7-28.8,63.6-63.8
				C1248.6,263.6,1219.9,234.9,1184.9,235z M1212.3,300.7c-5.3,5-11.9,7.1-19.1,7.1c-5.6,0-11.3,0-17.3,0c0,9.3,0.1,18.2,0,27.1
				c-0.1,7-6.9,11.3-13,8.3c-3.8-1.9-5.2-5.1-5.2-9.2c0-17.9,0-35.8,0-53.7c0-5.8,0-11.5,0-17.3c0.1-6.1,3.7-9.9,9.8-9.9
				c10.3,0.1,20.7-0.5,30.9,0.7c11.4,1.3,18.8,8.5,21.9,19.5C1223.2,284,1220.2,293.2,1212.3,300.7z"/>
			<path class="st2" d="M1195.9,271.7c-6.6-0.5-13.2-0.1-19.9-0.1c0,6,0,11.8,0,18c6.4,0,12.4,0.1,18.5,0c4.8-0.1,8.4-3.9,8.7-8.5
				C1203.4,276.6,1200.4,272,1195.9,271.7z"/>
		</g>
	</g>
</g>
</svg>
